<?xml version="1.0" encoding="UTF-8"?>
<!DOCTYPE svg PUBLIC "-//W3C//DTD SVG 1.1//EN" "http://www.w3.org/Graphics/SVG/1.1/DTD/svg11.dtd">
<!-- Creator: CorelDRAW 2020 (64-Bit) -->
<svg xmlns="http://www.w3.org/2000/svg" xml:space="preserve" width="15.8239mm" height="13.5107mm" version="1.1" style="shape-rendering:geometricPrecision; text-rendering:geometricPrecision; image-rendering:optimizeQuality; fill-rule:evenodd; clip-rule:evenodd"
viewBox="0 0 449.65 383.92"
 xmlns:xlink="http://www.w3.org/1999/xlink"
 xmlns:xodm="http://www.corel.com/coreldraw/odm/2003">
 <defs>
  <style type="text/css">
   <![CDATA[
    .fil0 {fill:#F1D9DD}
    .fil2 {fill:#F38191}
    .fil1 {fill:#FCBAC3}
   ]]>
  </style>
 </defs>
 <g id="Слой_x0020_1">
  <metadata id="CorelCorpID_0Corel-Layer"/>
  <path class="fil0" d="M230.42 283.51l0 -0 -0.2 -0.09c-51.26,-22.95 -74.29,-83.07 -51.44,-134.41 22.88,-51.4 83.1,-74.52 134.5,-51.64 51.4,22.88 74.52,83.1 51.64,134.5 -22.88,51.4 -83.1,74.52 -134.5,51.64zm-107.49 -47.85l-101.07 -44.99 -21.86 49.11 208.35 92.75 0.2 0.09c78.52,34.96 170.51,-0.36 205.47,-78.88 34.96,-78.52 -0.36,-170.51 -78.88,-205.47 -78.52,-34.96 -170.51,0.36 -205.47,78.88 -15.84,35.59 -17.25,73.95 -6.74,108.51z"/>
  <path class="fil1" d="M208.8 258.64l0 0 -0.12 -0.18c-30.69,-47.04 -17.52,-110.06 29.48,-140.87 47.06,-30.84 110.2,-17.7 141.05,29.36 30.84,47.06 17.7,110.2 -29.36,141.05 -47.06,30.84 -110.2,17.7 -141.05,-29.36zm-64.5 -98.4l-60.65 -92.53 -44.96 29.46 125.02 190.75 0.12 0.19c47.12,71.89 143.58,91.97 215.47,44.85 71.89,-47.12 91.96,-143.59 44.85,-215.47 -47.12,-71.89 -143.58,-91.96 -215.47,-44.85 -32.58,21.35 -54.52,52.85 -64.38,87.6z"/>
  <path class="fil2" d="M180.48 228.29l0 0 0 -0.22c0.12,-56.16 45.68,-101.65 101.87,-101.65 56.26,0 101.87,45.61 101.87,101.87 0,56.26 -45.61,101.87 -101.87,101.87 -56.26,0 -101.87,-45.61 -101.87,-101.87zm0 -117.66l0 -110.63 -53.75 0 0 228.06 -0 0.22c0,85.95 69.68,155.63 155.63,155.63 85.95,0 155.63,-69.68 155.63,-155.63 0,-85.95 -69.68,-155.63 -155.63,-155.63 -38.96,0 -74.57,14.31 -101.87,37.97z"/>
 </g>
</svg>
